<svg width="914" height="400" fill="none" xmlns="http://www.w3.org/2000/svg"><style>#CL0 {fill: #333;}@media (prefers-color-scheme: dark) {#CL0 {fill: #CCC;}}</style><path d="M451.789 212c1 0 1.8-.8 1.8-1.8s-.8-1.8-1.8-1.8h-1.88v-10.96h2.68c1 0 1.8-.8 1.8-1.8s-.8-1.8-1.8-1.8h-2.68v-3.56c0-1.76 1.12-3 3.32-3h1.68c1.04 0 1.88-.84 1.88-1.88s-.84-1.88-1.88-1.88h-1.84c-5.04 0-7.48 3.4-7.48 7.08v3.24h-.84c-1 0-1.8.8-1.8 1.8s.8 1.8 1.8 1.8h.84v10.96h-.96c-1 0-1.8.8-1.8 1.8 0 1.04.8 1.8 1.8 1.8h7.16Zm19.197-4.72c0-1-.8-1.8-1.8-1.8s-1.8.8-1.8 1.8v1.04h-5.52l8.44-11.32c.24-.32.44-.68.44-1.24 0-1.04-.88-1.92-1.92-1.92h-10.28c-.96 0-1.8.72-1.8 1.68v2.64c0 1 .8 1.8 1.8 1.8 1.04 0 1.8-.8 1.8-1.8v-.72h4.96l-8.6 11.52c-.24.32-.44.64-.44 1.2 0 1 .84 1.84 1.84 1.84h11.04c1 0 1.84-.84 1.84-1.84v-2.88Z" id="CL0"/></svg>