<svg width="914" height="400" fill="none" xmlns="http://www.w3.org/2000/svg"><path d="M451.789 212h-7.16c-1 0-1.8-.76-1.8-1.8 0-1 .8-1.8 1.8-1.8h.96v-10.96h-.84c-1 0-1.8-.8-1.8-1.8s.8-1.8 1.8-1.8h.84v-3.24c0-3.68 2.44-7.08 7.48-7.08h1.84c1.04 0 1.88.84 1.88 1.88s-.84 1.88-1.88 1.88h-1.68c-2.2 0-3.32 1.24-3.32 3v3.56h2.68c1 0 1.8.8 1.8 1.8s-.8 1.8-1.8 1.8h-2.68v10.96h1.88c1 0 1.8.8 1.8 1.8s-.8 1.8-1.8 1.8Zm19.197-4.72v2.88c0 1-.84 1.84-1.84 1.84h-11.04c-1 0-1.84-.84-1.84-1.84 0-.56.2-.88.44-1.2l8.6-11.52h-4.96v.72c0 1-.76 1.8-1.8 1.8-1 0-1.8-.8-1.8-1.8v-2.64c0-.96.84-1.68 1.8-1.68h10.28c1.04 0 1.92.88 1.92 1.92 0 .56-.2.92-.44 1.24l-8.44 11.32h5.52v-1.04c0-1 .8-1.8 1.8-1.8s1.8.8 1.8 1.8Z" fill="#00ACD7"/></svg>